# xmcd
# 
# Track frame offsets:
#     150
#     11957
#     26054
#     43595
#     59614
#     76389
#     90020
#     104421
#     120531
#     134530
#     149430
#     164812
#     177709
#     194022
#     210867
#     227515
#     244206
#     260003
#     273533
#     287022
#     304110
# 
# Disc length: 4268
# 
# Revision: 1
# Processed by: cddbd v1.5.2PL0 Copyright (c) Steve Scherf et al.
# Submitted via: fre:ac v1.0.27
# 
DISCID=3d10aa15
DTITLE=Various Artist - Dancefloor Connection 2 2008 CD2
DYEAR=2008
DGENRE=Club
TTITLE0=Eric Prydz - Pjanoo (Radio Edit)
TTITLE1=Dave Darell - Children (Radio Mix)
TTITLE2=Mark Knight and Funkagenda - Man With The Red Face (Radio Edit)
TTITLE3=Fragma - Toca's Miracle (Richard Durand Remix Edit)
TTITLE4=John Revox - Ole (Radio Edit)
TTITLE5=Atomic Boy - Boom (Radio Edit)
TTITLE6=Those Usual Suspects - Greece 2000 (D.O.N.S. and DBN Remix Radio Edit)
TTITLE7=Alp vs. Outwork - Fiesta Elektronika (Paolo Aliberti Radio Edit)
TTITLE8=Syke'n'Sugarstarr pres. Cece Rogers - No Love (Lost Short Edit)
TTITLE9=Teo Moss and Jeremy Reyes - E-Samba (Radio Edit)
TTITLE10=Steve Forest - Freed From Desire (Radio Edit)
TTITLE11=1Plus1 - Off The Wall (Enjoy Yourself) (Original Edit)
TTITLE12=Future Funk - Wildberry Tracks 2008 (Jerome Isma-Ae Original Radio Edit)
TTITLE13=Afronics - Everybody Dance (Original Radio Edit)
TTITLE14=Kidz and Palmez - Looove (Radio Edit)
TTITLE15=Buy Now - Body Crash (Radio Edit)
TTITLE16=Eddie Wata - I Love My People (Original Edit)
TTITLE17=Mixata - Emotion (Vocal Club Edit)
TTITLE18=Robert Abigail - Mojito Song (Radio Edit)
TTITLE19=Rod Debyser - Cosina (Original Radio Edit)
TTITLE20=Hervé feat. Plastic Little - Cheap Thrills (Ok Audio Radio Edit)
EXTD=
EXTT0=
EXTT1=
EXTT2=
EXTT3=
EXTT4=
EXTT5=
EXTT6=
EXTT7=
EXTT8=
EXTT9=
EXTT10=
EXTT11=
EXTT12=
EXTT13=
EXTT14=
EXTT15=
EXTT16=
EXTT17=
EXTT18=
EXTT19=
EXTT20=
PLAYORDER=
